<svg id="Layer_1" xmlns="http://www.w3.org/2000/svg" viewBox="0 0 300 142"><style>.st0{opacity:.5}.st1{fill:#9cb6de}.st2{fill:#fad1a4}.st3{fill:none;stroke:#59585b;stroke-width:8;stroke-linecap:round;stroke-linejoin:round}.st4{fill:#456289}.st5{fill:#f78e20}</style><g class="st0"><path class="st1" d="M68.5 28.9h52.8v38.7H68.5z"/><path class="st2" d="M118.3 21.4H71.6c-1.7 0-3 1.3-3 3v4.5h52.8v-4.4c0-1.7-1.3-3-3-3 0-.1-.1-.1-.1-.1z"/><path class="st1" d="M182.3 24.6h52.8V96h-52.8z"/><path class="st2" d="M232.1 17.1h-46.7c-1.7 0-3 1.3-3 3v4.5h52.8v-4.4c0-1.7-1.3-3-3-3 0-.1-.1-.1-.1-.1z"/></g><title>icon-home-developer</title><path class="st3" d="M104.7 47.9h93.5v74.6h-93.5z"/><path class="st3" d="M193.2 36.5h-83.5c-2.8 0-5 2.2-5 5V48h93.5v-6.4c0-2.8-2.3-5-5-5.1z"/><path class="st3" d="M193.2 36.5h-83.5c-2.8 0-5 2.2-5 5V48h93.5v-6.4c0-2.8-2.3-5-5-5.1z"/><path class="st3" d="M193.2 36.5h-83.5c-2.8 0-5 2.2-5 5V48h93.5v-6.4c0-2.8-2.3-5-5-5.1z"/><circle class="st3" cx="111.5" cy="42.6" r="1.8"/><circle class="st3" cx="117.8" cy="42.6" r="1.8"/><circle class="st3" cx="124.2" cy="42.6" r="1.8"/><path class="st3" d="M112.2 55.1h19.1V58h-19.1zM116.9 62h44.2v2.9h-44.2zM116.9 68.9h32.5v2.9h-32.5zM112.2 75.7h19.1v2.9h-19.1zM112.2 84.2h19.1v2.9h-19.1zM116.9 91.1h44.2V94h-44.2zM112.2 98.5h19.1v2.9h-19.1z"/><path class="st4" d="M104.7 47.9h93.5v74.6h-93.5z"/><path class="st2" d="M193.2 36.5h-83.5c-2.8 0-5 2.2-5 5V48h93.5v-6.4c0-2.8-2.3-5-5-5.1z"/><circle class="st5" cx="111.5" cy="42.6" r="1.8"/><circle class="st5" cx="117.8" cy="42.6" r="1.8"/><circle class="st5" cx="124.2" cy="42.6" r="1.8"/><path class="st1" d="M112.2 55.1h19.1V58h-19.1zM116.9 62h44.2v2.9h-44.2zM116.9 68.9h32.5v2.9h-32.5zM112.2 75.7h19.1v2.9h-19.1zM112.2 84.2h19.1v2.9h-19.1zM116.9 91.1h44.2V94h-44.2zM112.2 98.5h19.1v2.9h-19.1z"/></svg>
