<svg id="Layer_1" xmlns="http://www.w3.org/2000/svg" viewBox="0 0 300 142"><style>.st0{opacity:.5}.st1{fill:#9cb6de}.st2{fill:none;stroke:#59585b;stroke-width:9;stroke-linecap:round;stroke-linejoin:round}.st3{fill:#fad1a4}.st4{fill:#8f9db7}.st5{opacity:.63;fill:none;stroke:url(#SVGID_1_);stroke-width:2;stroke-miterlimit:10;enable-background:new}</style><g class="st0"><path class="st1" d="M140 80.7c.7-3.6.7-7.2 0-10.8h-5.6c-.6-2.8-1.7-5.4-3.2-7.8l4-4c-2.1-3-4.7-5.6-7.6-7.6l-4 4c-2.4-1.5-5-2.6-7.8-3.2v-5.6c-3.6-.7-7.2-.7-10.8 0v5.6c-2.8.6-5.4 1.7-7.8 3.2l-4-4c-3 2.1-5.6 4.7-7.6 7.6l4 4c-1.5 2.4-2.6 5-3.2 7.8h-5.8c-.7 3.6-.7 7.2 0 10.8h5.6c.6 2.8 1.7 5.4 3.2 7.8l-4 4c2.1 3 4.7 5.6 7.6 7.6l4-4c2.4 1.5 5 2.6 7.8 3.2v5.6c3.6.7 7.2.7 10.8 0v-5.6c2.8-.6 5.4-1.7 7.8-3.2l4 4c3-2.1 5.6-4.7 7.6-7.6l-4-4c1.5-2.4 2.6-5 3.2-7.8h5.8zM196.5 27.1c0-1.9-.3-3.7-.9-5.5l-2.8.5c-.5-1.3-1.3-2.5-2.3-3.6l1.6-2.4c-1.3-1.3-2.8-2.4-4.5-3.2l-1.6 2.4c-1.3-.5-2.8-.9-4.3-.9l-.5-2.8c-1.9 0-3.7.3-5.5.9l.5 2.8c-1.3.5-2.5 1.3-3.6 2.3l-2.4-1.6c-1.3 1.3-2.4 2.8-3.2 4.5l2.4 1.6c-.5 1.3-.9 2.8-.9 4.3l-2.8.5c0 1.9.3 3.7.9 5.5l2.8-.5c.5 1.3 1.3 2.5 2.3 3.6l-1.6 2.4c1.3 1.3 2.8 2.4 4.5 3.2l1.6-2.4c1.3.5 2.8.9 4.3.9l.4 2.8c1.9 0 3.7-.3 5.5-.9l-.5-2.8c1.3-.5 2.5-1.3 3.6-2.3l2.4 1.6c1.3-1.3 2.4-2.8 3.2-4.5l-2.4-1.6c.5-1.3.9-2.8.9-4.3l2.9-.5z"/><path class="st1" d="M222.3 60.1c.8-2.5.9-5.4.8-8l-4.1-.4c-.3-2.1-.9-4.1-1.9-6l3.2-2.7c-1.3-2.4-3.1-4.4-5.1-6.2l-3.2 2.7c-1.6-1.3-3.5-2.3-5.5-2.9l.4-4.1c-2.5-.8-5.4-.9-8-.8l-.4 4.1c-2.1.3-4.1.9-6 1.9l-2.7-3.2c-2.4 1.3-4.4 3.1-6.2 5.1l2.7 3.2c-1.3 1.6-2.3 3.5-2.9 5.5l-4.1-.4c-.8 2.5-.9 5.4-.8 8l4.1.4c.3 2.1.9 4.1 1.9 6l-3.2 2.7c1.3 2.4 3.1 4.4 5.1 6.2l3.2-2.7c1.6 1.3 3.5 2.3 5.5 2.9l-.4 4.1c2.5.8 5.4.9 8 .8l.4-4.1c2.1-.3 4.1-.9 6-1.9l2.7 3.2c2.4-1.3 4.4-3.1 6.2-5.1l-2.7-3.2c1.3-1.6 2.3-3.5 2.9-5.5l4.1.4z"/></g><title>icon-home-product</title><path class="st2" d="M184.3 54.8c0-19.2-15.6-34.8-34.8-34.8s-34.8 15.6-34.8 34.8c0 9.9 4.2 19.2 11.5 25.8 7.6 6.9 11.9 16.7 11.8 27v3.9l23-3v-.9c-.1-10.2 4.1-20 11.7-26.9 7.4-6.6 11.6-16 11.6-25.9zM161 117.6l-23 3v-6.1l23-3zM161 126.6l-23 3v-6l23-3z"/><path class="st2" d="M144.2 104V66.6s-.5-8.8-7-8.8-7 9.5 0 9.5h23c5.2 0 6.8-9.5 0-9.5s-7.2 9.5-7.2 9.5V104"/><path class="st3" d="M184.3 54.8c0-19.2-15.6-34.8-34.8-34.8s-34.8 15.6-34.8 34.8c0 9.9 4.2 19.2 11.5 25.8 7.6 6.9 11.9 16.7 11.8 27v3.9l23-3v-.9c-.1-10.2 4.1-20 11.7-26.9 7.4-6.6 11.6-16 11.6-25.9z"/><path class="st4" d="M161 117.6l-23 3v-6.1l23-3zM161 126.6l-23 3v-6l23-3z"/><linearGradient id="SVGID_1_" gradientUnits="userSpaceOnUse" x1="148.428" y1="-428" x2="148.428" y2="-380.85" gradientTransform="matrix(1 0 0 -1 0 -324)"><stop offset="0" stop-color="#fad1a4"/><stop offset="1" stop-color="#f78e20"/></linearGradient><path class="st5" d="M144.2 104V66.6s-.5-8.8-7-8.8-7 9.5 0 9.5h23c5.2 0 6.8-9.5 0-9.5s-7.2 9.5-7.2 9.5V104"/></svg>
