<svg id="Layer_1" xmlns="http://www.w3.org/2000/svg" xmlns:xlink="http://www.w3.org/1999/xlink" viewBox="0 0 300 142"><style>.st0{fill:none;stroke:#59585b;stroke-width:8;stroke-linejoin:round}.st1{clip-path:url(#SVGID_2_)}.st2{fill:#8f9db7}.st3{fill:#9cb6de}.st4{fill:#c2d0eb}.st5{clip-path:url(#SVGID_4_)}.st6{fill:#fad1a4}.st7{opacity:.5;fill:#9cb6de}</style><title>icon-home-marketing</title><g id="megaphone-megaphone"><path class="st0" d="M110.6 91.5l5.5 29.1 12.2-5.5-4.9-26M97.9 87.2l-5 .9c-1.9.4-3.8-.9-4.1-2.8l-2.5-13.2c-.3-1.9.9-3.8 2.8-4.1l5-.9M168.5 55.7c3.8-.7 7.4 1.8 8.1 5.5l.2 1.2c.7 3.8-1.8 7.4-5.6 8.1"/><path class="st0" d="M160.6 29.6l-12.1 13.7c-4.3 4.9-10.1 8.2-16.5 9.4l-36.6 6.9c-1.4.3-2.4 1.7-2.1 3.1l5.5 28.9c.3 1.4 1.7 2.4 3.1 2.1l36.6-6.9c6.4-1.2 13-.3 18.8 2.7l16.3 8.3 2.8-.5-6.4-34.1-6.5-34.2-2.9.6z"/><path class="st0" d="M94.7 69.8c-.3-1.4.7-2.8 2.1-3.1l36.6-6.9c6.4-1.2 12.2-4.5 16.5-9.4L162 36.7l2.8-.5-1.3-7.2-2.8.5-12.1 13.7c-4.3 4.9-10.1 8.2-16.5 9.4l-36.6 6.9c-1.4.3-2.4 1.7-2.1 3.1l5.5 28.9c0 .1 0 .2.1.2l-4.3-21.9z"/><defs><path id="SVGID_1_" d="M160.6 29.6l-12.1 13.7c-4.3 4.9-10.1 8.2-16.5 9.4l-36.6 6.9c-1.4.3-2.4 1.7-2.1 3.1l5.5 28.9c.3 1.4 1.7 2.4 3.1 2.1l36.6-6.9c6.4-1.2 13-.3 18.8 2.7l16.3 8.3 2.8-.5-6.4-34.1-6.5-34.2-2.9.6z"/></defs><clipPath id="SVGID_2_"><use xlink:href="#SVGID_1_" overflow="visible"/></clipPath><g class="st1"><path transform="rotate(-10.72 143.836 68.057)" class="st0" d="M135.8 42.3h16v51.6h-16z"/></g><path class="st2" d="M110.6 91.5l5.5 29.1 12.2-5.5-4.9-26M97.9 87.2l-5 .9c-1.9.4-3.8-.9-4.1-2.8l-2.5-13.2c-.3-1.9.9-3.8 2.8-4.1l5-.9M168.5 55.7c3.8-.7 7.4 1.8 8.1 5.5l.2 1.2c.7 3.8-1.8 7.4-5.6 8.1"/><path class="st3" d="M160.6 29.6l-12.1 13.7c-4.3 4.9-10.1 8.2-16.5 9.4l-36.6 6.9c-1.4.3-2.4 1.7-2.1 3.1l5.5 28.9c.3 1.4 1.7 2.4 3.1 2.1l36.6-6.9c6.4-1.2 13-.3 18.8 2.7l16.3 8.3 2.8-.5-6.4-34.1-6.5-34.2-2.9.6z"/><path class="st4" d="M94.7 69.8c-.3-1.4.7-2.8 2.1-3.1l36.6-6.9c6.4-1.2 12.2-4.5 16.5-9.4L162 36.7l2.8-.5-1.3-7.2-2.8.5-12.1 13.7c-4.3 4.9-10.1 8.2-16.5 9.4l-36.6 6.9c-1.4.3-2.4 1.7-2.1 3.1l5.5 28.9c0 .1 0 .2.1.2l-4.3-21.9z"/><g><defs><path id="SVGID_3_" d="M160.6 29.6l-12.1 13.7c-4.3 4.9-10.1 8.2-16.5 9.4l-36.6 6.9c-1.4.3-2.4 1.7-2.1 3.1l5.5 28.9c.3 1.4 1.7 2.4 3.1 2.1l36.6-6.9c6.4-1.2 13-.3 18.8 2.7l16.3 8.3 2.8-.5-6.4-34.1-6.5-34.2-2.9.6z"/></defs><clipPath id="SVGID_4_"><use xlink:href="#SVGID_3_" overflow="visible"/></clipPath><g class="st5"><path transform="rotate(-10.72 143.836 68.057)" class="st6" d="M135.8 42.3h16v51.6h-16z"/></g></g></g><path transform="rotate(-55.07 192.39 31.038)" class="st7" d="M183.7 27.3H201v7.5h-17.3z"/><path transform="rotate(-10.068 207.187 54.251)" class="st7" d="M198.6 50.5h17.2V58h-17.2z"/><path transform="rotate(-55.07 201.263 82.432)" class="st7" d="M197.5 73.6h7.5v17.8h-7.5z"/></svg>
